<svg width="32" height="32" viewBox="0 0 32 32" fill="none" xmlns="http://www.w3.org/2000/svg">
<g clip-path="url(#clip0_27_166)">
<rect width="32" height="32" rx="16" fill="white"/>
<path fill-rule="evenodd" clip-rule="evenodd" d="M0 13.8131L0.00825732 32.0065L16.0145 32.0002L32.0208 31.994L32.0186 13.8071L32.0248 0.00045C32.0248 0.00045 22.2657 0.000312868 16.0125 0.000225C9.75925 0.000137132 0.00010004 0 0.00010004 0L0 13.8131ZM0.012375 13.9757C0.012375 22.6932 0.015225 26.2631 0.0187 21.909C0.022175 17.5548 0.022175 10.4223 0.0187 6.05897C0.015225 1.69565 0.012375 5.25817 0.012375 13.9757ZM14.93 5.9265C14.1258 5.99942 13.0685 6.2224 12.4341 6.45282C12.2984 6.5021 12.1368 6.5595 12.0749 6.5804C11.583 6.74655 10.6876 7.19498 10.0749 7.58208C9.3812 8.02038 8.9321 8.3732 8.24375 9.0207C7.43527 9.7812 6.61427 10.8943 6.07825 11.9567C5.926 12.2585 5.6166 13.0051 5.51172 13.3238C5.32597 13.8882 5.12457 14.7656 5.05175 15.3277C4.99435 15.7705 4.96495 16.7636 4.9951 17.2406C5.027 17.7452 5.09905 18.3474 5.16242 18.6387C5.35705 19.5337 5.49712 19.9773 5.84745 20.8081C6.27092 21.8123 6.99692 22.919 7.81052 23.8007C9.41332 25.5375 11.5005 26.7014 13.8125 27.1475C15.1367 27.403 16.7054 27.3937 18.05 27.1223C18.5763 27.0161 18.7549 26.9697 19.2125 26.8205C20.0336 26.5527 20.8306 26.1879 21.5248 25.7622C21.9693 25.4896 22.5021 25.1176 22.7279 24.9222C22.8051 24.8554 22.9513 24.7316 23.0529 24.6471C23.5664 24.22 24.3257 23.3917 24.7913 22.7507C25.0806 22.3525 25.5236 21.6037 25.7455 21.1382C25.8811 20.8535 26.2324 19.9689 26.2965 19.7507C26.4885 19.0965 26.6324 18.4071 26.701 17.8132C26.7635 17.2716 26.7767 16.1987 26.7269 15.7007C26.6236 14.6656 26.3967 13.7175 26.0329 12.8007C25.7422 12.0681 25.4573 11.5239 25.0119 10.8507C24.762 10.4729 24.6302 10.2921 24.3106 9.88818C24.1465 9.6809 23.4208 8.9375 23.1314 8.68023C22.7602 8.35018 22.4023 8.07403 21.9384 7.75958C21.4801 7.4489 21.2796 7.3305 20.75 7.0578C20.344 6.84878 20.1744 6.77555 19.5454 6.53763C18.2049 6.03065 16.407 5.79257 14.93 5.9265ZM15.0125 6.4655C14.3521 6.5259 13.4251 6.70033 12.9131 6.86053C11.7167 7.23488 10.5268 7.8491 9.54995 8.59655C8.17697 9.64713 7.0304 11.1156 6.35722 12.6855C5.84405 13.8823 5.59555 15.0147 5.55835 16.3257C5.51747 17.7667 5.76117 19.0765 6.3165 20.4007C6.58317 21.0365 6.98722 21.7826 7.28815 22.1948C7.35072 22.2805 7.46055 22.431 7.53217 22.5291C8.06725 23.262 9.0301 24.2268 9.63745 24.6385C9.7062 24.6851 9.82995 24.7755 9.91245 24.8394C10.3931 25.2118 11.3299 25.7099 12.1735 26.0417C12.56 26.1938 13.4088 26.4387 13.8419 26.5232C14.6285 26.6765 14.8902 26.6991 15.875 26.6988C16.8977 26.6985 17.1315 26.6782 17.9114 26.5224C18.3688 26.4309 19.0678 26.2322 19.4959 26.0719C19.6252 26.0234 19.9293 25.894 20.1717 25.7841C22.7369 24.6219 24.7867 22.3805 25.6668 19.7757C25.8143 19.3391 25.903 18.9912 26.008 18.4382C26.124 17.8277 26.1461 17.6443 26.1753 17.0546C26.2489 15.5682 25.9759 14.0905 25.3661 12.6757C25.1973 12.2842 25.1042 12.0963 24.9135 11.7632C24.4621 10.9746 24.0228 10.3807 23.3965 9.71215C22.9829 9.2707 22.6484 8.97173 22.0125 8.475C21.5661 8.12643 20.5436 7.53398 19.9625 7.2872C18.8858 6.83005 17.9414 6.5912 16.75 6.47465C16.3589 6.4364 15.3866 6.4313 15.0125 6.4655ZM14.8793 7.21435C13.0045 7.41338 11.3173 8.1227 9.77515 9.36025C9.28415 9.75425 8.4297 10.6544 8.08745 11.1382C7.44322 12.0489 7.07805 12.7548 6.7426 13.7382C6.27134 15.1195 6.15887 16.7282 6.42797 18.2382C6.8693 20.7145 8.39915 22.981 10.5999 24.4191C11.2976 24.875 12.3278 25.3561 13.0799 25.5774C13.7085 25.7623 14.4829 25.9107 15.0875 25.9621C15.6966 26.0139 16.5802 25.9863 17.125 25.8983C17.2556 25.8772 17.4637 25.8444 17.5875 25.8254C19.0512 25.6006 20.8027 24.7825 22.025 23.7528C22.5639 23.2988 23.1298 22.7236 23.4413 22.3132C23.5092 22.2238 23.616 22.0832 23.6787 22.0007C23.8579 21.7648 24.2718 21.1028 24.4289 20.8007C24.8219 20.0448 25.1754 19.0102 25.3129 18.2132C25.4787 17.2515 25.4926 16.1002 25.349 15.2097C25.2354 14.5056 25.0397 13.7926 24.7946 13.19C24.6419 12.8144 24.2485 12.0327 24.108 11.8257C24.052 11.7432 23.9447 11.5796 23.8695 11.4621C23.567 10.9896 22.8702 10.1833 22.3875 9.74713C21.5348 8.97678 20.8052 8.48365 19.8875 8.05748C19.2608 7.76648 18.6192 7.5447 17.9614 7.3917C17.0384 7.17705 15.8661 7.1096 14.8793 7.21435ZM15.7875 10.0253C15.5311 10.1294 15.45 10.2439 15.1827 10.8794C14.9511 11.4298 14.7919 11.8031 14.2514 13.0632C14.0892 13.4413 13.8636 13.97 13.75 14.2382C13.6364 14.5063 13.4279 14.9958 13.2867 15.3261C13.1454 15.6563 12.9791 16.05 12.917 16.2011C12.8549 16.3521 12.748 16.605 12.6795 16.7632C12.3729 17.4704 11.9749 18.4168 11.9749 18.4389C11.9749 18.4539 12.2125 18.4632 12.5983 18.4632H13.2216L13.2389 18.4069C13.2485 18.376 13.3324 18.1707 13.4254 17.9507C13.7233 17.2459 13.95 16.6906 13.95 16.6655C13.95 16.5959 14.0045 16.6242 14.0521 16.7185C14.1397 16.8923 14.3741 17.265 14.489 17.4132C15.3115 18.4736 16.8519 18.9422 18.2202 18.5481C18.5098 18.4647 18.9686 18.2559 19.2 18.1021C19.421 17.9552 19.8848 17.5127 20.0135 17.3257L20.1041 17.1943L19.9432 16.9225C19.8547 16.773 19.7517 16.5966 19.7143 16.5306C19.6435 16.4055 19.6042 16.3807 19.4375 16.3551C19.3216 16.3373 19.3036 16.3465 19.234 16.4589C19.1513 16.5923 18.8255 16.9436 18.6625 17.0751C18.4901 17.2142 18.0381 17.4392 17.8 17.5045C17.6727 17.5394 17.5399 17.5493 17.1875 17.5499C16.7931 17.5506 16.7134 17.5437 16.5428 17.4942C16.3334 17.4335 16.0145 17.2828 15.8115 17.1486C15.6595 17.0481 15.3913 16.7802 15.2398 16.5775C14.9311 16.1645 14.7498 15.5441 14.783 15.015C14.8 14.7433 14.8401 14.5919 14.9751 14.2882C15.2271 13.7214 16.0337 11.8034 16.1053 11.6007C16.1481 11.4794 16.1667 11.4779 16.2078 11.5925C16.2292 11.652 16.3381 11.9201 16.4497 12.1882C16.5614 12.4563 16.7031 12.7989 16.7647 12.9494C16.8263 13.1 16.8796 13.2262 16.8832 13.2298C16.8868 13.2334 16.9511 13.22 17.0261 13.2001C17.3192 13.1221 17.6792 13.1725 17.9875 13.3346C18.0562 13.3708 18.1209 13.4042 18.1312 13.4089C18.1677 13.4254 18.1489 13.3537 18.0643 13.1534C18.0172 13.0419 17.7409 12.3826 17.4504 11.6882C17.1599 10.9938 16.9038 10.3825 16.8813 10.3298C16.7495 10.0206 16.1857 9.86358 15.7875 10.0253ZM15.8284 13.5653C15.7009 13.6044 15.5693 13.696 15.4564 13.8243C15.224 14.0883 15.2448 14.5548 15.502 14.8471C15.5548 14.9071 15.7359 15.0505 15.9044 15.1659C16.289 15.4292 16.4786 15.6058 16.6367 15.8479C16.705 15.9525 16.7669 16.0378 16.7742 16.0374C16.7815 16.037 16.8268 15.9678 16.875 15.8837C16.995 15.6739 17.2839 15.3971 17.6128 15.177C17.9118 14.9768 18.153 14.7449 18.2177 14.5953C18.2429 14.5374 18.2595 14.428 18.2606 14.3132C18.2628 14.0873 18.1992 13.9361 18.0312 13.7681C17.8695 13.6063 17.7298 13.5509 17.4875 13.5521C17.2383 13.5534 17.1043 13.6089 16.912 13.7908L16.7741 13.9212L16.686 13.8182C16.5559 13.6663 16.3282 13.5624 16.0973 13.5497C15.9956 13.5441 15.8747 13.5511 15.8284 13.5653ZM16.047 14.0352C15.9621 14.1202 15.95 14.1468 15.95 14.2486C15.95 14.4407 16.0396 14.5758 16.4122 14.9454C16.598 15.1297 16.75 15.2934 16.75 15.3093C16.75 15.3627 16.7871 15.3384 16.8493 15.2442C16.8833 15.1928 17.0262 15.0367 17.1667 14.8974C17.3073 14.7581 17.4562 14.5907 17.4976 14.5254C17.6438 14.2949 17.6169 14.0625 17.4339 13.9757C17.2505 13.8886 17.0484 13.9929 16.8741 14.2645C16.8305 14.3325 16.7868 14.3882 16.7771 14.3882C16.7675 14.3882 16.7154 14.32 16.6615 14.2367C16.5413 14.051 16.3831 13.9382 16.2427 13.9382C16.1615 13.9382 16.127 13.9553 16.047 14.0352ZM19.5677 20.6787C19.558 20.6885 19.55 21.0269 19.55 21.4306C19.55 22.2792 19.5556 22.3091 19.7303 22.3884C19.9393 22.4833 20.05 22.444 20.05 22.2748C20.05 22.1672 20.0472 22.1632 19.9743 22.1632C19.9154 22.1632 19.8931 22.1484 19.8733 22.0963C19.858 22.056 19.8492 21.7599 19.8513 21.3525L19.8548 20.6757L19.7201 20.6683C19.6461 20.6643 19.5775 20.669 19.5677 20.6787ZM16.8363 20.7495C16.8026 20.7833 16.775 20.84 16.775 20.8757C16.775 20.9459 16.8749 21.0632 16.9347 21.0632C17.0681 21.0632 17.1691 20.943 17.1385 20.8208C17.124 20.7632 17.0103 20.6882 16.9376 20.6882C16.9156 20.6882 16.8701 20.7158 16.8363 20.7495ZM11.1999 21.5882V22.4132H11.3499H11.4999V22.0632V21.7132H11.8749H12.2499V22.0632V22.4132H12.3999H12.55L12.553 21.7444C12.5547 21.3766 12.5575 21.0082 12.5593 20.9257L12.5625 20.7757L12.4211 20.7682L12.2798 20.7608L12.2645 20.9932C12.2562 21.1211 12.2466 21.2707 12.2434 21.3257C12.2361 21.4485 12.229 21.4501 11.8062 21.4257L11.4999 21.4081V21.0856V20.7632H11.3499H11.1999V21.5882ZM17.6375 20.8993L17.5125 20.9258L17.5049 21.0708C17.5005 21.1558 17.485 21.2195 17.4674 21.2249C17.4509 21.2299 17.4059 21.2409 17.3673 21.2494C17.3023 21.2637 17.2977 21.2726 17.3048 21.3702C17.3122 21.4724 17.3153 21.4759 17.4062 21.4834L17.5 21.4912V21.8296C17.5 22.094 17.5091 22.1874 17.5417 22.2561C17.5986 22.376 17.7081 22.438 17.8625 22.4377C18.0528 22.4374 18.1 22.4182 18.0996 22.3415C18.0989 22.1974 18.0753 22.1632 17.9768 22.1632C17.8171 22.1632 17.7887 22.1222 17.7786 21.8767C17.7737 21.7582 17.7771 21.6223 17.786 21.5747C17.8022 21.4885 17.8028 21.4882 17.9386 21.4882H18.075V21.3644V21.2407L17.9312 21.2332L17.7875 21.2257L17.775 21.0492L17.7625 20.8727L17.6375 20.8993ZM13.2625 21.2365C13.1404 21.2663 13.0377 21.3296 12.9505 21.4288C12.8388 21.556 12.8 21.6602 12.8 21.8325C12.8 22.4679 13.6397 22.6672 13.9826 22.1132C14.0256 22.0437 14.0368 21.9869 14.0368 21.838C14.0368 21.6781 14.0266 21.6328 13.9678 21.5325C13.8274 21.2929 13.535 21.1702 13.2625 21.2365ZM14.6 21.2302C14.4637 21.2536 14.38 21.2927 14.3103 21.3654C14.2482 21.4303 14.2375 21.4613 14.2375 21.5768C14.2375 21.7637 14.3191 21.844 14.6029 21.9361C14.7764 21.9924 14.8139 22.0139 14.8207 22.0607C14.8344 22.1547 14.7538 22.2203 14.6429 22.2054C14.5598 22.1942 14.5099 22.1694 14.3885 22.0787C14.3554 22.0539 14.1758 22.1583 14.1753 22.2026C14.1748 22.24 14.271 22.324 14.3738 22.376C14.4213 22.4001 14.5306 22.4254 14.6167 22.4323C14.7508 22.4431 14.7927 22.4354 14.9091 22.3784C15.0584 22.3053 15.1128 22.2409 15.1379 22.1074C15.1704 21.9338 15.0146 21.7688 14.7662 21.7137C14.6146 21.6801 14.5 21.6221 14.5 21.5789C14.5 21.4686 14.7198 21.4251 14.8318 21.5132C14.914 21.5778 14.957 21.5762 15.0394 21.5053C15.0966 21.4562 15.1025 21.4396 15.0786 21.395C15.018 21.2817 14.779 21.1994 14.6 21.2302ZM15.8861 21.2399C15.8441 21.2521 15.7831 21.2904 15.7505 21.3251C15.6732 21.4074 15.65 21.4047 15.65 21.3132C15.65 21.2399 15.647 21.2382 15.5264 21.2382C15.4585 21.2382 15.3976 21.2467 15.3912 21.2571C15.3816 21.2727 15.3642 22.7797 15.3724 22.8819C15.3741 22.9028 15.4205 22.9132 15.5125 22.9132H15.65V22.6132C15.65 22.4482 15.655 22.3132 15.6611 22.3132C15.6673 22.3132 15.7252 22.3413 15.7899 22.3757C16.0498 22.5139 16.3585 22.4156 16.5178 22.1438C16.577 22.0429 16.5867 21.9993 16.5858 21.8384C16.5849 21.6866 16.5723 21.6267 16.5201 21.5257C16.4425 21.3758 16.397 21.332 16.2495 21.2651C16.1312 21.2114 16.0124 21.2032 15.8861 21.2399ZM18.5778 21.2491C18.4788 21.2814 18.3 21.421 18.3 21.466C18.3 21.476 18.339 21.5082 18.3866 21.5377L18.4733 21.5912L18.5872 21.5245C18.6738 21.4738 18.7205 21.4615 18.7826 21.4731C18.9056 21.4962 18.975 21.5551 18.975 21.6366V21.7072L18.7426 21.7174C18.3847 21.733 18.2392 21.8437 18.2392 22.1006C18.2392 22.2165 18.2499 22.2479 18.3112 22.3119C18.4509 22.4577 18.6899 22.4761 18.8727 22.3551C18.9738 22.2882 19 22.2907 19 22.3673C19 22.4062 19.0208 22.4132 19.1375 22.4132H19.275L19.2744 21.9819C19.2738 21.4869 19.2475 21.3871 19.0925 21.2913C18.9778 21.2204 18.7286 21.2 18.5778 21.2491ZM16.8672 21.2587C16.829 21.2661 16.825 21.3216 16.825 21.84V22.4132H16.975H17.125V21.9417C17.125 21.6823 17.1178 21.4178 17.109 21.3538C17.0931 21.2378 17.0928 21.2375 17.0013 21.2441C16.9508 21.2477 16.8905 21.2543 16.8672 21.2587ZM13.2403 21.5404C13.0353 21.7016 13.0542 22.0115 13.2759 22.1262C13.5629 22.2745 13.8436 21.9857 13.714 21.6754C13.642 21.5033 13.3818 21.4291 13.2403 21.5404ZM15.8137 21.5371C15.5345 21.7212 15.6483 22.1632 15.975 22.1632C16.2715 22.1632 16.3976 21.782 16.1749 21.5592C16.0871 21.4714 15.9281 21.4617 15.8137 21.5371ZM18.6625 21.9148C18.5256 21.9556 18.4873 22.0633 18.5759 22.1584C18.6464 22.2341 18.7978 22.2333 18.8677 22.1569C18.9379 22.0801 19.0053 21.942 18.987 21.9124C18.9687 21.8827 18.765 21.8842 18.6625 21.9148Z" fill="url(#paint0_linear_27_166)"/>
</g>
<defs>
<linearGradient id="paint0_linear_27_166" x1="-0.000122299" y1="0.000225133" x2="32.0249" y2="32.0002" gradientUnits="userSpaceOnUse">
<stop stop-color="#4CF5D7"/>
<stop offset="1" stop-color="#53FF95"/>
</linearGradient>
<clipPath id="clip0_27_166">
<rect width="32" height="32" rx="16" fill="white"/>
</clipPath>
</defs>
</svg>
